<svg width="25" height="37" viewBox="0 0 25 37" fill="none" xmlns="http://www.w3.org/2000/svg">
<path id="Vector" d="M19.6453 14.6665V8.07321C19.6453 5.57169 18.2837 3.2602 16.0727 2.00964C13.8616 0.758689 11.138 0.758689 8.92699 2.00964C6.71635 3.2602 5.35435 5.57179 5.35435 8.07321V14.6692H1V34.6136C1.00038 35.0002 1.15728 35.3706 1.43606 35.6442C1.71522 35.9173 2.09321 36.0711 2.48778 36.0714H22.5122C22.9068 36.071 23.2851 35.9173 23.5639 35.6442C23.8431 35.3706 23.9996 35.0002 24 34.6136V14.6673L19.6453 14.6665ZM6.34622 8.07321C6.34622 5.91913 7.51941 3.92816 9.42322 2.85132C11.327 1.77409 13.673 1.77409 15.5768 2.85132C17.481 3.92816 18.6538 5.91913 18.6538 8.07321V14.6692H6.34602L6.34622 8.07321ZM18.6531 15.6413L18.6534 35.0986H6.34562V15.6384L18.6531 15.6413ZM1.98931 34.6153L1.9897 15.6384H5.35237V35.0986H2.4876C2.21382 35.0986 1.99156 34.8812 1.99156 34.6129L1.98931 34.6153ZM23.006 34.6153H23.0064C23.0064 34.7442 22.9541 34.8678 22.8611 34.959C22.768 35.0498 22.6419 35.101 22.5104 35.101H19.6456V15.638H23.0083L23.006 34.6153Z" fill="black" stroke="black"/>
</svg>
