<svg width="35" height="35" viewBox="0 0 35 35" fill="none" xmlns="http://www.w3.org/2000/svg">
<g id="Clip path group">
<mask id="mask0_5_156" style="mask-type:luminance" maskUnits="userSpaceOnUse" x="0" y="0" width="35" height="35">
<g id="a">
<path id="Vector" d="M0 0H35V35H0V0Z" fill="white"/>
</g>
</mask>
<g mask="url(#mask0_5_156)">
<g id="Group">
<path id="Vector_2" fill-rule="evenodd" clip-rule="evenodd" d="M17.3564 6.92578C17.3868 6.98834 17.4373 7.02222 17.4978 7.02222C17.5583 7.02222 17.6139 6.98804 17.6443 6.92578C19.9873 2.28617 23.5778 -1.29687 28.4859 0.559845C32.2631 1.99078 35.0002 6.18758 35.0002 11.1341C35.0002 18.1757 28.5717 23.8888 24.4413 28.4208L18.6291 34.4404C17.9879 35.1048 17.0131 35.1048 16.3719 34.4404L10.5597 28.4208C6.42404 23.8889 0.000854492 18.1763 0.000854492 11.1341C0.000854492 6.05133 2.88416 1.77 6.81794 0.452032C11.6152 -1.155 15.0898 2.43961 17.3566 6.92602L17.3564 6.92578ZM17.4978 31.9641L22.7748 26.5011C26.2136 22.7303 32.6167 17.012 32.6167 11.1339C32.6167 7.60727 30.7483 4.24547 27.7234 3.10422C23.9714 1.67875 21.4213 4.87609 19.7141 8.24914C19.2595 9.15219 18.4164 9.70297 17.4973 9.70297C16.5782 9.70297 15.735 9.15213 15.2805 8.24914C13.6392 4.99508 11.1497 1.79805 7.49837 3.01906C4.35754 4.06977 2.38304 7.51672 2.38304 11.1339C2.38304 17.0116 8.78115 22.73 12.1749 26.4495L17.4973 31.9638L17.4978 31.9641Z" fill="black"/>
</g>
</g>
</g>
</svg>
