<svg width="85" height="85" viewBox="0 0 85 85" fill="none" xmlns="http://www.w3.org/2000/svg">
<path d="M30.3501 38.45V34.4C30.3501 27.677 32.3751 22.25 42.5001 22.25C52.6251 22.25 54.6501 27.677 54.6501 34.4V38.45" stroke="#183028" stroke-width="3.5" stroke-linecap="round" stroke-linejoin="round"/>
<path d="M42.5018 53.0299C43.8435 53.0299 44.9314 51.9421 44.9314 50.5999C44.9314 49.2582 43.8435 48.1699 42.5018 48.1699C41.1596 48.1699 40.0718 49.2582 40.0718 50.5999C40.0718 51.9421 41.1596 53.0299 42.5018 53.0299Z" stroke="#183028" stroke-width="3.5" stroke-linecap="round" stroke-linejoin="round"/>
<path d="M52.625 62.7502H32.375C24.275 62.7502 22.25 60.7252 22.25 52.6252V48.5752C22.25 40.4752 24.275 38.4502 32.375 38.4502H52.625C60.725 38.4502 62.75 40.4752 62.75 48.5752V52.6252C62.75 60.7252 60.725 62.7502 52.625 62.7502Z" stroke="#183028" stroke-width="3.5" stroke-linecap="round" stroke-linejoin="round"/>
<path d="M10.1 18.2C5.0375 24.9635 2 33.3875 2 42.5C2 64.856 20.144 83 42.5 83C64.856 83 83 64.856 83 42.5C83 20.144 64.856 2 42.5 2C36.7085 2 31.1599 3.21504 26.1784 5.44254" stroke="#183028" stroke-width="3.5" stroke-linecap="round" stroke-linejoin="round"/>
</svg>
