<svg width="30" height="35" viewBox="0 0 30 35" fill="none" xmlns="http://www.w3.org/2000/svg">
<g id="Group">
<path id="Vector" d="M14.9998 17.5004C17.3867 17.5004 19.6759 16.5785 21.3633 14.9375C23.0512 13.2965 23.9998 11.0708 23.9998 8.75018C23.9998 6.4295 23.0512 4.20388 21.3633 2.56288C19.6759 0.921868 17.3867 0 14.9998 0C12.6128 0 10.3237 0.921847 8.63581 2.56288C6.94795 4.2039 5.99976 6.4295 5.99976 8.75018C6.00272 11.07 6.95174 13.2941 8.63873 14.9342C10.3262 16.5748 12.6137 17.4975 14.9998 17.5004ZM14.9998 2.12078C16.8077 2.12078 18.5421 2.81895 19.8209 4.06231C21.0995 5.30532 21.8179 6.99149 21.8179 8.74965C21.8179 10.5074 21.0994 12.1937 19.8209 13.437C18.5421 14.68 16.8077 15.3785 14.9998 15.3785C13.1914 15.3785 11.457 14.6799 10.1786 13.437C8.89976 12.1937 8.18163 10.5074 8.18163 8.74965C8.18459 6.99233 8.90355 5.30775 10.1816 4.06515C11.4597 2.82255 13.1924 2.12363 14.9999 2.12068L14.9998 2.12078Z" fill="black"/>
<path id="Vector_2" d="M17.2637 19.0908H12.7365C9.35989 19.0949 6.12296 20.4008 3.73517 22.7223C1.3478 25.0434 0.00465542 28.1909 0 31.4738V33.9396C0 34.2208 0.115032 34.4906 0.319719 34.6896C0.524406 34.8886 0.801836 35 1.09111 35H28.9089C29.1982 35 29.476 34.8886 29.6803 34.6896C29.885 34.4906 30 34.2208 30 33.9396V31.4738C29.9958 28.1909 28.6522 25.0434 26.2648 22.7223C23.877 20.4008 20.6401 19.0949 17.2635 19.0908H17.2637ZM27.8183 32.8789H2.18209L2.18167 31.4739C2.18463 28.7531 3.29778 26.1446 5.27655 24.2208C7.25489 22.297 9.93793 21.2151 12.7363 21.2123H17.2635C20.062 21.2151 22.7449 22.297 24.7237 24.2208C26.702 26.1446 27.8152 28.7532 27.8181 31.4739L27.8183 32.8789Z" fill="black"/>
</g>
</svg>
