<svg width="31" height="48" viewBox="0 0 31 48" fill="none" xmlns="http://www.w3.org/2000/svg">
<path id="Vector" d="M25.1306 18.6447V9.60244C25.1306 6.1718 23.2954 3.00175 20.3153 1.28669C17.3352 -0.428897 13.6643 -0.428897 10.6842 1.28669C7.70464 3.00175 5.8689 6.17193 5.8689 9.60244V18.6484H0V46.0007C0.000518375 46.5309 0.211983 47.0388 0.587729 47.414C0.963992 47.7887 1.47346 47.9995 2.00526 48H28.9947C29.5265 47.9995 30.0365 47.7887 30.4123 47.414C30.7885 47.0389 30.9995 46.5309 31 46.0007V18.6458L25.1306 18.6447ZM7.20577 9.60244C7.20577 6.64828 8.78703 3.91781 11.353 2.441C13.919 0.963653 17.081 0.963653 19.647 2.441C22.2136 3.91781 23.7943 6.64828 23.7943 9.60244V18.6484H7.20551L7.20577 9.60244ZM23.7932 19.9816L23.7938 46.6658H7.20497V19.9776L23.7932 19.9816ZM1.33342 46.0031L1.33394 19.9776H5.86624V46.6658H2.00503C1.63602 46.6658 1.33645 46.3677 1.33645 45.9997L1.33342 46.0031ZM29.6603 46.0031H29.6608C29.6608 46.1798 29.5903 46.3493 29.4649 46.4743C29.3395 46.5989 29.1695 46.6692 28.9922 46.6692H25.131V19.9769H29.6633L29.6603 46.0031Z" fill="black"/>
</svg>
